<svg xmlns="http://www.w3.org/2000/svg" width="240" height="240" style="width:100%;height:100%;transform:translate3d(0,0,0);content-visibility:visible" viewBox="0 0 240 240"><defs><clipPath id="a"><path d="M0 0h240v240H0z"/></clipPath><clipPath id="c"><path d="M0 0h240v240H0z"/></clipPath><clipPath id="b"><path d="M0 0h240v240H0z"/></clipPath></defs><g clip-path="url(#a)"><g fill="#121331" clip-path="url(#b)" style="display:block"><path d="M-80-7.5V-5c0 41.654 31.834 75.87 72.5 79.651V90h-25a7.5 7.5 0 0 0 0 15h65a7.5 7.5 0 0 0 0-15h-25V74.651C48.166 70.87 80 36.654 80-5v-2.5a7.5 7.5 0 0 0-15 0V-5c0 35.899-29.101 65-65 65S-65 30.899-65-5v-2.5a7.5 7.5 0 0 0-15 0" class="primary" style="display:block" transform="translate(120 115)"/><path d="M0 45c27.614 0 50-22.386 50-50v-50c0-27.614-22.386-50-50-50s-50 22.386-50 50v50c0 27.614 22.386 50 50 50" class="primary" style="display:block" transform="translate(120 115)"/></g><g clip-path="url(#c)" style="display:none"><path class="primary" style="display:none"/><g fill="none" style="display:none"><path class="primary"/><path class="primary"/><path class="primary"/></g><g style="display:none"><path fill="none" class="primary"/><path class="primary"/></g><path class="primary" style="display:none"/></g></g></svg>