<svg xmlns="http://www.w3.org/2000/svg" width="240" height="240" style="width:100%;height:100%;transform:translate3d(0,0,0);content-visibility:visible" viewBox="0 0 240 240"><defs><clipPath id="e"><path d="M0 0h240v240H0z"/></clipPath><clipPath id="h"><path d="M0 0h240v240H0z"/></clipPath><clipPath id="f"><path d="M0 0h240v240H0z"/></clipPath><filter id="a" width="100%" height="100%" x="0%" y="0%" filterUnits="objectBoundingBox"><feComponentTransfer in="SourceGraphic"><feFuncA tableValues="1.0 0.0" type="table"/></feComponentTransfer></filter><filter id="c" width="100%" height="100%" x="0%" y="0%" filterUnits="objectBoundingBox"><feComponentTransfer in="SourceGraphic"><feFuncA tableValues="1.0 0.0" type="table"/></feComponentTransfer></filter><mask id="i" mask-type="alpha" maskUnits="userSpaceOnUse"><g filter="url(#a)"><path fill="#fff" d="M0 0h240v240H0z" opacity="0"/><use xmlns:ns1="http://www.w3.org/1999/xlink" ns1:href="#b"/></g></mask><mask id="g" mask-type="alpha" maskUnits="userSpaceOnUse"><g filter="url(#c)"><path fill="#fff" d="M0 0h240v240H0z" opacity="0"/><use xmlns:ns2="http://www.w3.org/1999/xlink" ns2:href="#d"/></g></mask><path id="d" fill="#121331" d="M-26.514 26.527a7.5 7.5 0 0 1 0-10.606L17.68-28.274l.28-.266a7.501 7.501 0 0 1 10.326 10.873l-44.193 44.194-.281.266a7.5 7.5 0 0 1-10.326-.266m7.072-60.094a7.5 7.5 0 0 1 0-10.606l12.374-12.375c17.574-17.573 46.067-17.573 63.64 0 17.573 17.574 17.572 46.066-.001 63.639L44.198 19.466A7.5 7.5 0 1 1 33.59 8.86L45.965-3.516c11.715-11.716 11.715-30.709 0-42.425s-30.711-11.716-42.427-.001L-8.836-33.568a7.5 7.5 0 0 1-10.606.001m-37.123 90.156c-17.574-17.574-17.573-46.065 0-63.639l12.374-12.375A7.5 7.5 0 0 1-33.585-8.819L-45.959 3.556c-11.716 11.716-11.715 30.711.001 42.427 11.716 11.715 30.709 11.715 42.425 0L8.842 33.608a7.5 7.5 0 0 1 10.607 10.607L7.073 56.589c-17.573 17.573-46.065 17.573-63.638 0" class="primary" style="display:block" transform="translate(120 120)"/><g id="b" fill-opacity="0" stroke-linecap="round" stroke-linejoin="round" style="display:none"><path class="primary"/><path class="primary"/><path class="primary"/></g></defs><g clip-path="url(#e)"><g clip-path="url(#f)" mask="url(#g)" style="display:block"><path fill="#121331" d="M120 20C64.772 20 20 64.772 20 120s44.772 100 100 100 100-44.772 100-100S175.228 20 120 20" class="primary"/></g><g clip-path="url(#h)" style="display:none"><path class="primary" style="display:none"/><g mask="url(#i)" style="display:none"><path class="primary"/></g></g></g></svg>