<svg xmlns="http://www.w3.org/2000/svg" width="240" height="240" style="width:100%;height:100%;transform:translate3d(0,0,0);content-visibility:visible" viewBox="0 0 240 240"><defs><clipPath id="c"><path d="M0 0h240v240H0z"/></clipPath><clipPath id="f"><path d="M0 0h240v240H0z"/></clipPath><clipPath id="d"><path d="M0 0h240v240H0z"/></clipPath><filter id="a" width="100%" height="100%" x="0%" y="0%" filterUnits="objectBoundingBox"><feComponentTransfer in="SourceGraphic"><feFuncA tableValues="1.0 0.0" type="table"/></feComponentTransfer></filter><path id="b" fill-opacity="0" stroke="#121331" stroke-linecap="round" stroke-width="15" d="M0 0" class="primary" style="display:block" transform="translate(120 125.244)"/><mask id="e" mask-type="alpha" maskUnits="userSpaceOnUse"><g filter="url(#a)"><path fill="#fff" d="M0 0h240v240H0z" opacity="0"/><use xmlns:ns1="http://www.w3.org/1999/xlink" ns1:href="#b"/></g></mask></defs><g clip-path="url(#c)"><g clip-path="url(#d)" mask="url(#e)" style="display:block"><path fill="#121331" d="M191.831 92.628C187.013 57.254 156.692 30 120 30c-40.041 0-72.5 32.459-72.5 72.5 0 2.72.151 5.406.444 8.052C26.443 113.938 10 132.548 10 155c0 24.853 20.147 45 45 45h120c30.376 0 55-24.624 55-55 0-24.511-16.028-45.26-38.169-52.372" class="primary"/></g><g clip-path="url(#f)" style="display:none"><path class="primary" style="display:none"/><g style="display:none"><path fill="none" class="primary"/><path class="primary"/></g></g></g></svg>